<svg width="37" height="32" viewBox="0 0 37 32" fill="none" xmlns="http://www.w3.org/2000/svg">
<path d="M0.656895 29.6569L0.160638 29.5958H0.160638L0.656895 29.6569ZM35.8568 29.6569L36.353 29.5958L35.8568 29.6569ZM33.7249 12.334L34.2212 12.2729L33.7249 12.334ZM2.78873 12.334L2.29247 12.2729L2.78873 12.334ZM2.29247 12.2729L0.160638 29.5958L1.15315 29.7179L3.28499 12.3951L2.29247 12.2729ZM2.07444 31.7596H18.8705V30.7596H2.07444V31.7596ZM0.160638 29.5958C0.0191527 30.7455 0.916081 31.7596 2.07444 31.7596V30.7596C1.51681 30.7596 1.08504 30.2714 1.15315 29.7179L0.160638 29.5958ZM33.2287 12.3951L35.3605 29.7179L36.353 29.5958L34.2212 12.2729L33.2287 12.3951ZM34.4392 30.7596H18.8705V31.7596H34.4392V30.7596ZM35.3605 29.7179C35.4286 30.2714 34.9968 30.7596 34.4392 30.7596V31.7596C35.5976 31.7596 36.4945 30.7455 36.353 29.5958L35.3605 29.7179ZM3.94365 11.8125H32.57V10.8125H3.94365V11.8125ZM34.2212 12.2729C34.1185 11.439 33.4102 10.8125 32.57 10.8125V11.8125C32.9052 11.8125 33.1877 12.0624 33.2287 12.3951L34.2212 12.2729ZM3.28499 12.3951C3.32593 12.0624 3.60848 11.8125 3.94365 11.8125V10.8125C3.10344 10.8125 2.3951 11.439 2.29247 12.2729L3.28499 12.3951Z" fill="white"/>
<path d="M11.2087 13.791C11.2225 14.0668 11.4572 14.2792 11.733 14.2655C12.0088 14.2517 12.2212 14.017 12.2075 13.7412L11.2087 13.791ZM24.6639 13.7412C24.6502 14.017 24.8626 14.2517 25.1384 14.2655C25.4142 14.2792 25.6489 14.0668 25.6627 13.791L24.6639 13.7412ZM12.2075 13.7412C12.1077 11.7376 12.3202 8.74397 13.2609 6.27279C14.2014 3.80218 15.8025 1.99219 18.4353 1.99219V0.992188C15.1971 0.992188 13.3327 3.2735 12.3264 5.91702C11.3203 8.55996 11.1047 11.7033 11.2087 13.791L12.2075 13.7412ZM25.6627 13.791C25.7667 11.7032 25.551 8.55993 24.5447 5.91699C23.5381 3.27348 21.6734 0.992188 18.4353 0.992188V1.99219C21.0682 1.99219 22.6694 3.8022 23.6101 6.27282C24.551 8.74401 24.7638 11.7376 24.6639 13.7412L25.6627 13.791Z" fill="white"/>
</svg>
