<svg width="33" height="30" viewBox="0 0 33 30" fill="none" xmlns="http://www.w3.org/2000/svg">
<path d="M3.26995 3.01532C2.55029 3.77686 1.97942 4.68093 1.58994 5.67592C1.20046 6.67092 1 7.73735 1 8.81432C1 9.8913 1.20046 10.9577 1.58994 11.9527C1.97942 12.9477 2.55029 13.8518 3.26995 14.6133L16.5 28.6133L29.7301 14.6133C31.1835 13.0753 32 10.9894 32 8.81432C32 6.63928 31.1835 4.55331 29.7301 3.01532C28.2767 1.47734 26.3054 0.613302 24.25 0.613302C22.1945 0.613302 20.2233 1.47734 18.7699 3.01532L16.5 5.4173L14.2301 3.01532C13.5105 2.25378 12.6561 1.6497 11.7158 1.23755C10.7756 0.825409 9.76779 0.613281 8.75004 0.613281C7.73229 0.613281 6.72451 0.825409 5.78423 1.23755C4.84395 1.6497 3.9896 2.25378 3.26995 3.01532Z" stroke="white" stroke-linecap="round" stroke-linejoin="round"/>
</svg>
