<svg width="31" height="30" viewBox="0 0 31 30" fill="none" xmlns="http://www.w3.org/2000/svg">
<path d="M22.2307 7.41119C22.2307 11.2177 19.0721 14.3224 15.152 14.3224C11.232 14.3224 8.07336 11.2177 8.07336 7.41119C8.07336 3.60472 11.232 0.5 15.152 0.5C19.0721 0.5 22.2307 3.60472 22.2307 7.41119Z" stroke="white"/>
<path d="M29.7746 28.6217C29.798 28.9496 29.5279 29.2488 29.1511 29.2488H15.1574L1.16364 29.2488C0.786835 29.2488 0.51673 28.9496 0.540097 28.6217C0.655454 27.0026 1.0188 25.4108 1.61824 23.9071C2.35634 22.0557 3.43772 20.3746 4.79974 18.9594C6.16172 17.5443 7.77758 16.4228 9.55455 15.6581C11.3315 14.8933 13.2352 14.5 15.1574 14.5C17.0795 14.5 18.9833 14.8933 20.7602 15.6581C22.5371 16.4228 24.153 17.5443 25.515 18.9594C26.877 20.3746 27.9584 22.0557 28.6965 23.9071C29.2959 25.4108 29.6593 27.0025 29.7746 28.6217Z" stroke="white" stroke-linejoin="round"/>
</svg>
