<svg width="30" height="30" viewBox="0 0 30 30" fill="none" xmlns="http://www.w3.org/2000/svg">
<path d="M15.5 23.75C15.5 23.4739 15.2761 23.25 15 23.25C14.7239 23.25 14.5 23.4739 14.5 23.75H15.5ZM14.5 29C14.5 29.2761 14.7239 29.5 15 29.5C15.2761 29.5 15.5 29.2761 15.5 29H14.5ZM23.75 14.5C23.4739 14.5 23.25 14.7239 23.25 15C23.25 15.2761 23.4739 15.5 23.75 15.5V14.5ZM29 15.5C29.2761 15.5 29.5 15.2761 29.5 15C29.5 14.7239 29.2761 14.5 29 14.5V15.5ZM1 14.5C0.723858 14.5 0.5 14.7239 0.5 15C0.5 15.2761 0.723858 15.5 1 15.5V14.5ZM6.25 15.5C6.52614 15.5 6.75 15.2761 6.75 15C6.75 14.7239 6.52614 14.5 6.25 14.5V15.5ZM15.5 1C15.5 0.723858 15.2761 0.5 15 0.5C14.7239 0.5 14.5 0.723858 14.5 1H15.5ZM14.5 6.25C14.5 6.52614 14.7239 6.75 15 6.75C15.2761 6.75 15.5 6.52614 15.5 6.25H14.5ZM4.85355 4.49583C4.65829 4.30057 4.34171 4.30057 4.14645 4.49583C3.95118 4.6911 3.95118 5.00768 4.14645 5.20294L4.85355 4.49583ZM7.85876 8.91525C8.05402 9.11051 8.3706 9.11051 8.56586 8.91525C8.76113 8.71999 8.76113 8.40341 8.56586 8.20814L7.85876 8.91525ZM26.0662 4.85355C26.2615 4.65829 26.2615 4.34171 26.0662 4.14645C25.871 3.95118 25.5544 3.95118 25.3591 4.14645L26.0662 4.85355ZM21.6468 7.85876C21.4515 8.05402 21.4515 8.3706 21.6468 8.56586C21.8421 8.76113 22.1586 8.76113 22.3539 8.56586L21.6468 7.85876ZM25.3591 25.3674C25.5544 25.5627 25.871 25.5627 26.0662 25.3674C26.2615 25.1722 26.2615 24.8556 26.0662 24.6603L25.3591 25.3674ZM22.3539 20.948C22.1586 20.7528 21.8421 20.7528 21.6468 20.948C21.4515 21.1433 21.4515 21.4599 21.6468 21.6551L22.3539 20.948ZM4.14645 25.0097C3.95118 25.205 3.95118 25.5216 4.14645 25.7168C4.34171 25.9121 4.65829 25.9121 4.85355 25.7168L4.14645 25.0097ZM8.56586 22.0045C8.76113 21.8093 8.76113 21.4927 8.56586 21.2974C8.3706 21.1022 8.05402 21.1022 7.85876 21.2974L8.56586 22.0045ZM21.5 15C21.5 18.5899 18.5899 21.5 15 21.5V22.5C19.1421 22.5 22.5 19.1421 22.5 15H21.5ZM15 21.5C11.4101 21.5 8.5 18.5899 8.5 15H7.5C7.5 19.1421 10.8579 22.5 15 22.5V21.5ZM8.5 15C8.5 11.4101 11.4101 8.5 15 8.5V7.5C10.8579 7.5 7.5 10.8579 7.5 15H8.5ZM15 8.5C18.5899 8.5 21.5 11.4101 21.5 15H22.5C22.5 10.8579 19.1421 7.5 15 7.5V8.5ZM14.5 23.75V29H15.5V23.75H14.5ZM23.75 15.5H29V14.5H23.75V15.5ZM1 15.5H6.25V14.5H1V15.5ZM14.5 1V6.25H15.5V1H14.5ZM4.14645 5.20294L7.85876 8.91525L8.56586 8.20814L4.85355 4.49583L4.14645 5.20294ZM25.3591 4.14645L21.6468 7.85876L22.3539 8.56586L26.0662 4.85355L25.3591 4.14645ZM26.0662 24.6603L22.3539 20.948L21.6468 21.6551L25.3591 25.3674L26.0662 24.6603ZM4.85355 25.7168L8.56586 22.0045L7.85876 21.2974L4.14645 25.0097L4.85355 25.7168Z" fill="#2F3338"/>
</svg>
