<svg width="34" class="whatsapp-svg" height="35" viewBox="0 0 34 35" fill="none" xmlns="http://www.w3.org/2000/svg">
<path d="M18.4482 24.1308C13.8287 22.5094 11.1275 17.836 9.96412 15.4887C8.78834 11.9353 10.7484 9.56641 11.9214 9.56641H12.3934C12.8149 9.56641 13.1911 9.83071 13.3341 10.2272L14.4727 13.3852C14.5902 13.7111 14.5307 14.0746 14.3154 14.3459L13.509 15.3623C13.2586 15.678 13.2185 16.1157 13.4363 16.4548C14.7891 18.5612 16.9225 20.2266 18.2447 21.0229C18.6538 21.2693 19.1665 21.13 19.4425 20.7402L20.4048 19.3815C20.7005 18.964 21.2635 18.837 21.7097 19.087L24.1092 20.4315C24.3271 20.5536 24.4986 20.7517 24.5464 20.9969C24.7522 22.052 24.3651 23.0738 23.6651 23.7799C22.1678 25.29 19.5967 24.7544 18.6899 24.2444C18.612 24.2006 18.5325 24.1604 18.4482 24.1308Z" fill="#CB9E76"/>
<path d="M4.06674 26.9686L4.16483 26.7197L4.01218 26.4999C2.17867 23.8609 1.10156 20.6426 1.10156 17.1672C1.10156 8.20066 8.27134 0.943359 17.1016 0.943359C25.9318 0.943359 33.1016 8.20066 33.1016 17.1672C33.1016 26.1338 25.9318 33.3911 17.1016 33.3911C13.9911 33.3911 11.089 32.4916 8.63293 30.9349L8.41889 30.7992L8.18292 30.8916L1.48731 33.514L4.06674 26.9686Z" stroke="#CB9E76"/>
</svg>
